<?xml version="1.0" encoding="utf-8"?>
<!-- Generator: Adobe Illustrator 16.0.0, SVG Export Plug-In . SVG Version: 6.00 Build 0)  -->
<!DOCTYPE svg PUBLIC "-//W3C//DTD SVG 1.1//EN" "http://www.w3.org/Graphics/SVG/1.1/DTD/svg11.dtd">
<svg version="1.1" id="Layer_1" xmlns="http://www.w3.org/2000/svg" xmlns:xlink="http://www.w3.org/1999/xlink" x="0px" y="0px"
	 width="900px" height="900px" viewBox="0 0 900 900" enable-background="new 0 0 900 900" xml:space="preserve">
<g>
	<path fill="none" stroke="#FFFFFF" stroke-width="12" stroke-miterlimit="22.9256" d="M160.22,138.98h573.146
		c14.601,0,26.545,11.945,26.545,26.543v573.151c0,14.6-11.944,26.544-26.545,26.544H160.22c-14.601,0-26.543-11.944-26.543-26.544
		v-573.15C133.676,150.926,145.619,138.98,160.22,138.98z"/>
	<path fill="none" stroke="#FFFFFF" stroke-width="12" stroke-miterlimit="22.9256" d="M282.933,138.98h336.854
		c28.367,0,51.577,23.21,51.577,51.58v523.078c0,28.369-23.21,51.581-51.577,51.581H282.933c-28.368,0-51.577-23.212-51.577-51.581
		V190.56C231.356,162.191,254.565,138.98,282.933,138.98z"/>
	<path fill="none" stroke="#FFFFFF" stroke-width="12" stroke-miterlimit="22.9256" d="M293.679,189.62h306.257
		c21.218,0,38.576,17.356,38.576,38.574v251.955c0,21.218-17.358,38.576-38.576,38.576H293.679
		c-21.218,0-38.578-17.358-38.578-38.576V228.194C255.101,206.977,272.461,189.62,293.679,189.62z"/>
	<path fill="none" stroke="#FFFFFF" stroke-width="12" stroke-miterlimit="22.9256" d="M280.035,731.425h333.547
		c13.714,0,24.933-11.219,24.933-24.932V543.657c0-13.713-11.219-24.934-24.933-24.934H280.035
		c-13.714,0-24.935,11.221-24.935,24.934v162.836C255.101,720.206,266.321,731.425,280.035,731.425z"/>
	<path fill="#FFFFFF" stroke="#FFFFFF" stroke-width="12" stroke-miterlimit="22.9256" d="M309.785,206.927H583.83
		c18.984,0,34.52,15.534,34.52,34.519v225.452c0,18.984-15.534,34.519-34.52,34.519H309.785c-18.985,0-34.519-15.533-34.519-34.519
		V241.446C275.267,222.46,290.8,206.927,309.785,206.927z"/>
</g>
</svg>
