<?xml version="1.0" encoding="utf-8"?>
<!-- Generator: Adobe Illustrator 16.0.0, SVG Export Plug-In . SVG Version: 6.00 Build 0)  -->
<!DOCTYPE svg PUBLIC "-//W3C//DTD SVG 1.1//EN" "http://www.w3.org/Graphics/SVG/1.1/DTD/svg11.dtd">
<svg version="1.1" id="Layer_1" xmlns="http://www.w3.org/2000/svg" xmlns:xlink="http://www.w3.org/1999/xlink" x="0px" y="0px"
	 width="900px" height="900px" viewBox="0 0 900 900" enable-background="new 0 0 900 900" xml:space="preserve">
<g>
	<polygon fill="#FFFFFF" stroke="#FFFFFF" stroke-width="12" stroke-linejoin="round" stroke-miterlimit="22.9256" points="
		299.68,443.712 273.075,402.638 189.71,457.873 216.898,498.663 	"/>
	<polygon fill="#FFFFFF" stroke="#FFFFFF" stroke-width="12" stroke-linejoin="round" stroke-miterlimit="22.9256" points="
		604.194,756.66 257.964,756.229 257.964,745.433 604.194,745.433 	"/>
	<polyline fill="none" stroke="#FFFFFF" stroke-width="12" stroke-linejoin="round" stroke-miterlimit="22.9256" points="
		479.982,745.521 420.546,623.58 420.546,608.787 341.275,447.125 333.675,434.196 312.289,447.55 	"/>
	<polyline fill="none" stroke="#FFFFFF" stroke-width="12" stroke-linejoin="round" stroke-miterlimit="22.9256" points="
		522.491,745.521 455.87,604.104 442.932,596.244 360.606,434.936 354.477,421.979 376.413,406.746 	"/>
	
		<circle fill="#FFFFFF" stroke="#FFFFFF" stroke-width="12" stroke-linejoin="bevel" stroke-miterlimit="22.9256" cx="671.007" cy="183.007" r="51.731"/>
	<path fill="none" stroke="#FFFFFF" stroke-width="12" stroke-linejoin="bevel" stroke-miterlimit="22.9256" d="M354.468,351.727
		c-0.953-1.56-2.567-4.163-6.106-4.39c-1.824-0.116-5.913,1.778-7.389,2.861"/>
	<polygon fill="#FFFFFF" stroke="#FFFFFF" stroke-width="12" stroke-linejoin="round" stroke-miterlimit="22.9256" points="
		382.082,394.774 484.139,332.036 456.474,287.245 354.468,351.729 	"/>
	<path fill="none" stroke="#FFFFFF" stroke-width="12" stroke-linejoin="bevel" stroke-miterlimit="22.9256" d="M299.68,443.712
		c4.21,4.477,9.234,6.217,13.23,3.448"/>
	<path fill="none" stroke="#FFFFFF" stroke-width="12" stroke-linejoin="bevel" stroke-miterlimit="22.9256" d="M275.717,391.888
		c-4.169,2.696-4.334,6.442-2.483,10.9"/>
	
		<line fill="none" stroke="#FFFFFF" stroke-width="12" stroke-linejoin="bevel" stroke-miterlimit="22.9256" x1="275.082" y1="392.331" x2="341.543" y2="349.805"/>
	<polyline fill="none" stroke="#FFFFFF" stroke-width="12" stroke-linejoin="round" stroke-miterlimit="22.9256" points="
		213.271,493.216 167.684,522.916 147.935,493.791 193.438,463.465 	"/>
	
		<line fill="none" stroke="#FFFFFF" stroke-width="12" stroke-linejoin="bevel" stroke-miterlimit="22.9256" x1="360.606" y1="434.936" x2="340.851" y2="447.393"/>
	
		<line fill="none" stroke="#FFFFFF" stroke-width="12" stroke-linejoin="bevel" stroke-miterlimit="22.9256" x1="442.932" y1="596.244" x2="420.546" y2="608.787"/>
	
		<line fill="none" stroke="#FFFFFF" stroke-width="12" stroke-linejoin="bevel" stroke-miterlimit="22.9256" x1="455.87" y1="604.104" x2="420.546" y2="623.58"/>
	
		<line fill="none" stroke="#FFFFFF" stroke-width="12" stroke-linejoin="round" stroke-miterlimit="22.9256" x1="459.23" y1="293.481" x2="621.435" y2="197.793"/>
	
		<line fill="none" stroke="#FFFFFF" stroke-width="12" stroke-linejoin="bevel" stroke-miterlimit="22.9256" x1="636.698" y1="221.724" x2="480.422" y2="326.466"/>
	<path fill="none" stroke="#FFFFFF" stroke-width="12" stroke-linejoin="bevel" stroke-miterlimit="22.9256" d="M374.514,407.925
		c5.504-2.813,9.576-9.945,7.042-13.97"/>
</g>
</svg>
