<?xml version="1.0" encoding="utf-8"?>
<!-- Generator: Adobe Illustrator 16.0.0, SVG Export Plug-In . SVG Version: 6.00 Build 0)  -->
<!DOCTYPE svg PUBLIC "-//W3C//DTD SVG 1.1//EN" "http://www.w3.org/Graphics/SVG/1.1/DTD/svg11.dtd">
<svg version="1.1" id="Layer_1" xmlns="http://www.w3.org/2000/svg" xmlns:xlink="http://www.w3.org/1999/xlink" x="0px" y="0px"
	 width="900px" height="900px" viewBox="0 0 900 900" enable-background="new 0 0 900 900" xml:space="preserve">
<g>
	
		<line fill="none" stroke="#FFFFFF" stroke-width="12" stroke-linejoin="bevel" stroke-miterlimit="22.9256" x1="180.978" y1="416.917" x2="536.115" y2="484.542"/>
	<path fill="none" stroke="#FFFFFF" stroke-width="12" stroke-linejoin="bevel" stroke-miterlimit="22.9256" d="M181.656,417.046
		c-5.423-1.159-11.052,0.688-14.733,4.835c-3.679,4.149-4.842,9.958-3.046,15.208c1.797,5.248,6.282,9.121,11.733,10.138"/>
	<path fill="none" stroke="#FFFFFF" stroke-width="12" stroke-linejoin="bevel" stroke-miterlimit="22.9256" d="M530.031,513.642
		c5.261,1.105,10.707-0.713,14.249-4.755c3.537-4.048,4.621-9.684,2.827-14.754c-1.794-5.063-6.184-8.767-11.479-9.685"/>
	
		<line fill="none" stroke="#FFFFFF" stroke-width="12" stroke-linejoin="bevel" stroke-miterlimit="22.9256" x1="217.024" y1="761.785" x2="358.854" y2="481.564"/>
	<polygon fill="#FFFFFF" stroke="#FFFFFF" stroke-width="12" stroke-miterlimit="22.9256" points="457.145,356.674 425.361,350.166 
		373.064,453.493 217.024,761.785 252.099,761.785 	"/>
	
		<line fill="none" stroke="#FFFFFF" stroke-width="12" stroke-linejoin="bevel" stroke-miterlimit="22.9256" x1="252.099" y1="761.785" x2="390.892" y2="487.569"/>
	<path fill="#FFFFFF" stroke="#FFFFFF" stroke-width="12" stroke-linejoin="bevel" stroke-miterlimit="22.9256" d="M375.658,448.365
		l31.99,6.091l54.729-102.39c6.492-22.059-23.144-33.122-34.42-7.028L375.658,448.365z"/>
	<polygon fill="none" stroke="#FFFFFF" stroke-width="12" stroke-linejoin="round" stroke-miterlimit="22.9256" points="
		531.394,375.263 626.471,349.267 641.271,320.591 360.096,264.82 363.396,296.718 417.631,353.538 	"/>
	<polyline fill="none" stroke="#FFFFFF" stroke-width="12" stroke-miterlimit="22.9256" points="608.646,312.81 682.835,157.347 
		687.743,147.059 	"/>
	
		<line fill="none" stroke="#FFFFFF" stroke-width="12" stroke-miterlimit="22.9256" x1="527.295" y1="483.288" x2="586.28" y2="359.682"/>
	<path fill="none" stroke="#FFFFFF" stroke-width="12" stroke-linejoin="bevel" stroke-miterlimit="22.9256" d="M726.875,154.743
		c-7.325-8.175-17.409-16.956-24.085-17.513c-6.677-0.556-12.876,3.494-15.047,9.828"/>
	
		<line fill="none" stroke="#FFFFFF" stroke-width="12" stroke-linejoin="bevel" stroke-miterlimit="22.9256" x1="547.692" y1="501.895" x2="726.875" y2="154.743"/>
	
		<line fill="none" stroke="#FFFFFF" stroke-width="12" stroke-linejoin="bevel" stroke-miterlimit="22.9256" x1="703.903" y1="761.785" x2="564.464" y2="469.399"/>
	
		<line fill="none" stroke="#FFFFFF" stroke-width="12" stroke-linejoin="bevel" stroke-miterlimit="22.9256" x1="549.198" y1="437.39" x2="516.267" y2="368.338"/>
	
		<line fill="none" stroke="#FFFFFF" stroke-width="12" stroke-linejoin="bevel" stroke-miterlimit="22.9256" x1="669.236" y1="761.785" x2="546.752" y2="504.96"/>
	
		<line fill="none" stroke="#FFFFFF" stroke-width="12" stroke-linejoin="bevel" stroke-miterlimit="22.9256" x1="531.857" y1="473.728" x2="477.992" y2="360.788"/>
	
		<line fill="none" stroke="#FFFFFF" stroke-width="12" stroke-linejoin="bevel" stroke-miterlimit="22.9256" x1="669.236" y1="761.785" x2="703.903" y2="761.785"/>
	
		<line fill="none" stroke="#FFFFFF" stroke-width="12" stroke-linejoin="round" stroke-miterlimit="22.9256" x1="175.61" y1="447.228" x2="530.031" y2="513.642"/>
	<path stroke="#FFFFFF" stroke-width="12" stroke-linejoin="bevel" stroke-miterlimit="22.9256" d="M534.973,499.552
		c0-2.661-2.155-4.817-4.818-4.817c-2.662,0-4.819,2.156-4.819,4.817c0,2.665,2.157,4.82,4.819,4.82
		S534.973,502.217,534.973,499.552L534.973,499.552z"/>
	<path fill="none" stroke="#FFFFFF" stroke-width="12" stroke-linejoin="bevel" stroke-miterlimit="22.9256" d="M556.303,471.686
		c0-4.527-3.668-8.196-8.195-8.196c-4.525,0-8.197,3.669-8.197,8.196c0,4.531,3.672,8.197,8.197,8.197
		C552.635,479.883,556.303,476.217,556.303,471.686z"/>
	<polygon fill="#FFFFFF" stroke="#FFFFFF" stroke-width="12" stroke-miterlimit="22.9256" points="516.267,368.338 477.992,360.788 
		669.236,761.785 703.903,761.785 	"/>
	<path fill="#FFFFFF" stroke="#FFFFFF" stroke-width="12" stroke-miterlimit="22.9256" d="M477.992,360.788l38.273,7.55
		l-25.647-55.187c-9.722-24.372-39.485-13.26-29.085,11.601L477.992,360.788z"/>
	<path stroke="#FFFFFF" stroke-width="12" stroke-linejoin="bevel" stroke-miterlimit="22.9256" d="M618.848,330.687
		c0-2.663-2.159-4.822-4.82-4.822c-2.663,0-4.82,2.16-4.82,4.822c0,2.66,2.157,4.82,4.82,4.82
		C616.688,335.507,618.848,333.347,618.848,330.687L618.848,330.687z"/>
	<path fill="#FFFFFF" stroke="#FFFFFF" stroke-width="12" stroke-linejoin="bevel" stroke-miterlimit="22.9256" d="M388.428,470.146
		c0-2.664-2.162-4.822-4.822-4.822c-2.661,0-4.82,2.158-4.82,4.822c0,2.658,2.159,4.818,4.82,4.818
		C386.266,474.966,388.428,472.806,388.428,470.146L388.428,470.146z"/>
	<path fill="#FFFFFF" stroke="#FFFFFF" stroke-width="12" stroke-linejoin="bevel" stroke-miterlimit="22.9256" d="M452.181,343.748
		c0-2.662-2.157-4.82-4.82-4.82c-2.662,0-4.819,2.158-4.819,4.82s2.157,4.819,4.819,4.819S452.181,346.41,452.181,343.748
		L452.181,343.748z"/>
	<path fill="#FFFFFF" stroke="#FFFFFF" stroke-width="12" stroke-linejoin="bevel" stroke-miterlimit="22.9256" d="M479.265,314.253
		c0-2.666-2.161-4.822-4.822-4.822c-2.662,0-4.819,2.156-4.819,4.822c0,2.662,2.157,4.82,4.819,4.82
		C477.104,319.073,479.265,316.915,479.265,314.253L479.265,314.253z"/>
</g>
</svg>
