<?xml version="1.0" encoding="UTF-8"?>
<!DOCTYPE svg PUBLIC "-//W3C//DTD SVG 1.1//EN" "http://www.w3.org/Graphics/SVG/1.1/DTD/svg11.dtd">
<!-- Creator: CorelDRAW X7 -->
<?xml-stylesheet href="cockta.css" type="text/css"?>
<svg xmlns="http://www.w3.org/2000/svg" xml:space="preserve" width="120mm" height="120mm" version="1.1" style="shape-rendering:geometricPrecision; text-rendering:geometricPrecision; image-rendering:optimizeQuality; fill-rule:evenodd; clip-rule:evenodd"
viewBox="0 0 12000 12000"
 xmlns:xlink="http://www.w3.org/1999/xlink">
 <g id="Layer_x0020_1">
  <metadata id="CorelCorpID_0Corel-Layer"/>
  <path class="fil0 str0" d="M6786 3085l-485 0 -485 0c-49,95 -65,119 -55,201 6,48 23,116 48,162 40,62 44,259 28,370 -13,127 -43,320 -74,366 -45,136 -126,246 -152,387 -36,197 -91,434 -160,616 -62,165 -196,275 -279,438 -64,126 -87,282 -110,425l20 3430c31,195 138,291 321,286l904 0 932 -1c184,4 250,-90 281,-285l16 -3443c-23,-143 -42,-286 -106,-412 -83,-163 -217,-273 -280,-438 -69,-182 -123,-419 -159,-616 -26,-141 -107,-251 -152,-387 -31,-46 -61,-239 -74,-366 -16,-111 -12,-308 28,-370 25,-46 42,-114 48,-162 10,-82 -6,-106 -55,-201"/>
  <path class="fil1 str1" d="M6860 3085l0 0c0,-185 -151,-336 -335,-336l-454 0c-185,0 -335,151 -335,336l1124 0z"/>
  <g id="_909083557552">
   <g>
    <path class="fil1" d="M5313 7469l130 0 0 -258c-11,-87 -70,-135 -176,-145 -99,5 -158,53 -178,145l0 348 136 0 0 -175c3,-23 17,-34 42,-34 28,-1 43,12 46,39l0 80z"/>
    <path class="fil1" d="M5313 7634l130 0 0 258c-11,87 -70,135 -176,145 -99,-5 -158,-53 -178,-145l0 -349 136 0 0 175c3,24 17,35 42,35 28,1 43,-12 46,-39l0 -80z"/>
   </g>
   <g>
    <path class="fil1" d="M5742 7469l130 0 0 -258c-11,-87 -69,-135 -176,-145 -98,5 -157,53 -177,145l0 348 136 0 0 -175c3,-23 16,-34 41,-34 28,-1 44,12 46,39l0 80z"/>
    <path class="fil1" d="M5742 7634l130 0 0 258c-11,87 -69,135 -176,145 -98,-5 -157,-53 -177,-145l0 -349 136 0 0 175c3,24 16,35 41,35 28,1 44,-12 46,-39l0 -80z"/>
    <path class="fil1" d="M5649 7469l-130 0 0 -258c10,-87 69,-135 176,-145 98,5 157,53 177,145l0 348 -136 0 0 -175c-3,-23 -17,-34 -41,-34 -29,-1 -44,12 -46,39l0 80z"/>
    <path class="fil1" d="M5649 7634l-130 0 0 258c10,87 69,135 176,145 98,-5 157,-53 177,-145l0 -349 -136 0 0 175c-3,24 -17,35 -41,35 -29,1 -44,-12 -46,-39l0 -80z"/>
   </g>
   <g>
    <path class="fil1" d="M6148 7469l130 0 0 -258c-10,-87 -69,-135 -175,-145 -99,5 -158,53 -178,145l0 348 136 0 0 -175c3,-23 17,-34 42,-34 28,-1 43,12 45,39l0 80z"/>
    <path class="fil1" d="M6148 7634l130 0 0 258c-10,87 -69,135 -175,145 -99,-5 -158,-53 -178,-145l0 -349 136 0 0 175c3,24 17,35 42,35 28,1 43,-12 45,-39l0 -80z"/>
   </g>
   <g>
    <path class="fil1" d="M7262 7469l-130 0 0 -258c11,-87 70,-135 176,-145 98,5 158,53 178,145l0 348 -136 0 0 -175c-3,-23 -17,-34 -42,-34 -28,-1 -43,12 -46,39l0 80z"/>
    <path class="fil1" d="M7486 7484l0 75 0 207 50 0 0 268 -160 0 0 -103c-18,75 -55,110 -112,106 -51,7 -118,-39 -132,-120l4 -247c10,-111 98,-183 214,-186l136 0zm-213 193c13,-40 45,-61 96,-62l0 115c-8,23 -23,36 -45,39 -19,5 -49,-16 -51,-50l0 -42z"/>
   </g>
   <polygon class="fil1" points="6512,6790 6322,6790 6322,7016 6358,7016 6358,7769 6322,7769 6322,8037 6542,8037 6542,7769 6512,7769 6512,7615 6619,7769 6577,7769 6577,8037 6787,8037 6787,7769 6765,7769 6596,7532 6744,7341 6787,7341 6787,7066 6577,7066 6577,7338 6603,7338 6512,7476 6512,7475 "/>
   <path class="fil1" d="M7067 8037l-62 -1c-51,7 -118,-39 -132,-120l2 -152 0 -423 -42 0 0 -275 40 0 0 -276 145 0 0 276 42 0 0 275 -42 0 0 384c5,31 22,46 49,44l0 268z"/>
  </g>
 </g>
</svg>
