<?xml version="1.0" encoding="UTF-8"?>
<!DOCTYPE svg PUBLIC "-//W3C//DTD SVG 1.1//EN" "http://www.w3.org/Graphics/SVG/1.1/DTD/svg11.dtd">
<!-- Creator: CorelDRAW X7 -->
<?xml-stylesheet href="eta.css" type="text/css"?>
<svg xmlns="http://www.w3.org/2000/svg" xml:space="preserve" width="120mm" height="120mm" version="1.1" style="shape-rendering:geometricPrecision; text-rendering:geometricPrecision; image-rendering:optimizeQuality; fill-rule:evenodd; clip-rule:evenodd"
viewBox="0 0 12000 12000"
 xmlns:xlink="http://www.w3.org/1999/xlink">
 <g id="Layer_x0020_1">
  <metadata id="CorelCorpID_0Corel-Layer"/>
  <g id="_909082887008">
   <path class="fil0 str0" d="M9929 4592c87,1532 114,3037 -10,4545 -34,427 -2320,428 -2320,428"/>
   <path class="fil0 str0" d="M7593 2548c828,11 2187,-72 2205,160 12,152 24,304 35,455"/>
   <path class="fil0 str0" d="M5269 4592c-87,1532 -113,3037 10,4545 35,427 2328,428 2328,428"/>
   <path class="fil0 str0" d="M7599 2548c-827,11 -2181,-72 -2199,160 -12,152 -24,304 -35,456"/>
   <path class="fil0 str0" d="M6361 6733c-1,-224 11,-446 39,-893 15,-248 205,-419 450,-451 412,-52 750,-45 749,-45"/>
   <path class="fil0 str0" d="M6361 6730c-1,224 11,446 39,893 15,247 205,419 450,451 411,52 744,45 756,45"/>
   <path class="fil0 str0" d="M8837 6733c1,-224 -11,-446 -38,-893 -16,-248 -205,-419 -451,-451 -411,-52 -763,-45 -763,-45"/>
   <path class="fil0 str0" d="M8837 6730c1,224 -11,446 -38,893 -16,247 -205,419 -451,451 -411,52 -745,44 -749,45"/>
   <rect class="fil1 str0" x="6803" y="5837" width="456" height="306" rx="77" ry="75"/>
   <rect class="fil1 str0" x="7371" y="5837" width="456" height="306" rx="77" ry="75"/>
   <rect class="fil1 str0" x="7939" y="5837" width="456" height="306" rx="77" ry="75"/>
   <rect class="fil1 str0" x="6803" y="6323" width="456" height="306" rx="77" ry="75"/>
   <rect class="fil1 str0" x="7371" y="6323" width="456" height="306" rx="77" ry="75"/>
   <rect class="fil1 str0" x="7939" y="6323" width="456" height="306" rx="77" ry="75"/>
   <rect class="fil1 str0" x="6803" y="6810" width="456" height="306" rx="77" ry="75"/>
   <rect class="fil1 str0" x="7371" y="6810" width="456" height="306" rx="77" ry="75"/>
   <rect class="fil1 str0" x="7939" y="6810" width="456" height="306" rx="77" ry="75"/>
   <rect class="fil1 str0" x="6803" y="7296" width="456" height="306" rx="77" ry="75"/>
   <rect class="fil1 str0" x="7371" y="7296" width="456" height="306" rx="77" ry="75"/>
   <rect class="fil1 str0" x="7939" y="7296" width="456" height="306" rx="77" ry="75"/>
   <circle class="fil1 str0" cx="9114" cy="8045" r="119"/>
   <rect class="fil1 str0" x="4455" y="3155" width="6288" height="1438" rx="200" ry="212"/>
   <line class="fil0 str0" x1="6477" y1="2542" x2="6477" y2= "3155" />
   <line class="fil0 str0" x1="8722" y1="2542" x2="8722" y2= "3155" />
   <line class="fil0 str0" x1="4455" y1="3873" x2="3571" y2= "3873" />
   <line class="fil0 str0" x1="5223" y1="5571" x2="4339" y2= "5571" />
   <polyline class="fil0 str1" points="3571,3873 3571,5571 4339,5571 "/>
   <path class="fil0 str0" d="M3571 7287c0,913 -2843,-1716 -1730,-1716l1730 0 0 1716z"/>
  </g>
 </g>
</svg>
