<?xml version="1.0" encoding="UTF-8"?>
<!DOCTYPE svg PUBLIC "-//W3C//DTD SVG 1.1//EN" "http://www.w3.org/Graphics/SVG/1.1/DTD/svg11.dtd">
<!-- Creator: CorelDRAW X7 -->
<?xml-stylesheet href="rex-w.css" type="text/css"?>
<svg xmlns="http://www.w3.org/2000/svg" xml:space="preserve" width="100mm" height="100mm" version="1.1" style="shape-rendering:geometricPrecision; text-rendering:geometricPrecision; image-rendering:optimizeQuality; fill-rule:evenodd; clip-rule:evenodd"
viewBox="0 0 10000 10000"
 xmlns:xlink="http://www.w3.org/1999/xlink">
 <g id="Layer_x0020_1">
  <metadata id="CorelCorpID_0Corel-Layer"/>
  <line class="fil0 str0" x1="2137" y1="4527" x2="6126" y2= "5286" />
  <path class="fil0 str0" d="M2144 4528c-61,-13 -124,8 -165,55 -41,46 -55,111 -34,170 20,59 70,103 131,114"/>
  <path class="fil0 str0" d="M6058 5613c59,13 120,-8 160,-53 40,-46 52,-109 32,-166 -20,-57 -70,-98 -129,-109"/>
  <line class="fil0 str0" x1="2542" y1="8401" x2="4135" y2= "5253" />
  <polygon class="fil1 str1" points="5239,3850 4882,3777 4295,4938 2542,8401 2936,8401 "/>
  <line class="fil0 str0" x1="2936" y1="8401" x2="4495" y2= "5320" />
  <path class="fil1 str0" d="M4324 4880l359 68 615 -1150c73,-248 -260,-372 -387,-79l-587 1161z"/>
  <polygon class="fil0 str2" points="6073,4059 7141,3767 7308,3445 4149,2818 4186,3176 4795,3815 "/>
  <polyline class="fil0 str1" points="6941,3357 7775,1611 7830,1495 "/>
  <line class="fil0 str1" x1="6027" y1="5272" x2="6690" y2= "3884" />
  <path class="fil0 str0" d="M8269 1581c-82,-91 -195,-190 -270,-196 -75,-7 -145,39 -169,110"/>
  <line class="fil0 str0" x1="6256" y1="5481" x2="8269" y2= "1581" />
  <line class="fil0 str0" x1="8011" y1="8401" x2="6445" y2= "5116" />
  <line class="fil0 str0" x1="6273" y1="4757" x2="5903" y2= "3981" />
  <line class="fil0 str0" x1="7622" y1="8401" x2="6246" y2= "5516" />
  <line class="fil0 str0" x1="6079" y1="5165" x2="5473" y2= "3896" />
  <line class="fil0 str0" x1="7622" y1="8401" x2="8011" y2= "8401" />
  <line class="fil0 str2" x1="2076" y1="4867" x2="6058" y2= "5613" />
  <path class="fil1 str0" d="M6114 5455c0,-30 -25,-54 -55,-54 -29,0 -54,24 -54,54 0,30 25,54 54,54 30,0 55,-24 55,-54z"/>
  <path class="fil0 str0" d="M6353 5142c0,-51 -41,-92 -92,-92 -51,0 -92,41 -92,92 0,51 41,92 92,92 51,0 92,-41 92,-92z"/>
  <polygon class="fil1 str1" points="5903,3981 5473,3896 7622,8401 8011,8401 "/>
  <path class="fil1 str1" d="M5473 3896l430 85 -288 -620c-109,-274 -443,-149 -326,130l184 405z"/>
  <path class="fil1 str0" d="M7056 3558c0,-30 -24,-54 -54,-54 -30,0 -55,24 -55,54 0,30 25,54 55,54 30,0 54,-24 54,-54z"/>
  <path class="fil2 str0" d="M4467 5125c0,-30 -24,-54 -54,-54 -30,0 -54,24 -54,54 0,30 24,54 54,54 30,0 54,-24 54,-54z"/>
  <path class="fil2 str0" d="M5183 3705c0,-30 -24,-54 -54,-54 -30,0 -54,24 -54,54 0,30 24,54 54,54 30,0 54,-24 54,-54z"/>
  <path class="fil2 str0" d="M5488 3373c0,-30 -25,-54 -54,-54 -30,0 -55,24 -55,54 0,30 25,55 55,55 29,0 54,-25 54,-55z"/>
 </g>
</svg>
