<?xml version="1.0" encoding="UTF-8"?>
<!DOCTYPE svg PUBLIC "-//W3C//DTD SVG 1.1//EN" "http://www.w3.org/Graphics/SVG/1.1/DTD/svg11.dtd">
<!-- Creator: CorelDRAW X7 -->
<?xml-stylesheet href="rex.css" type="text/css"?>
<svg xmlns="http://www.w3.org/2000/svg" xml:space="preserve" width="12mm" height="12mm" version="1.1" style="shape-rendering:geometricPrecision; text-rendering:geometricPrecision; image-rendering:optimizeQuality; fill-rule:evenodd; clip-rule:evenodd"
viewBox="0 0 1200 1200"
 xmlns:xlink="http://www.w3.org/1999/xlink">
 <g id="Layer_x0020_1">
  <metadata id="CorelCorpID_0Corel-Layer"/>
  <rect class="fil0" x="85" y="123" width="1000" height="1000" rx="100" ry="100"/>
  <g id="_909082238448">
   <line class="fil0 str0" x1="284" y1="586" x2="683" y2= "662" />
   <path class="fil0 str0" d="M285 586c-6,-1 -12,1 -17,6 -4,5 -5,11 -3,17 2,6 7,10 13,11"/>
   <path class="fil0 str0" d="M676 695c6,1 12,-1 16,-5 4,-5 6,-11 4,-17 -3,-6 -7,-10 -13,-11"/>
   <line class="fil0 str0" x1="325" y1="974" x2="484" y2= "659" />
   <polygon class="fil1 str1" points="594,519 559,511 500,627 325,974 364,974 "/>
   <line class="fil0 str0" x1="364" y1="974" x2="520" y2= "666" />
   <path class="fil2 str0" d="M503 622l36 6 61 -115c8,-24 -26,-37 -38,-7l-59 116z"/>
   <polygon class="fil0 str2" points="678,540 785,510 801,478 485,415 489,451 550,515 "/>
   <polyline class="fil0 str1" points="765,469 848,295 854,283 "/>
   <line class="fil0 str1" x1="673" y1="661" x2="740" y2= "522" />
   <path class="fil0 str0" d="M897 292c-8,-9 -19,-19 -27,-20 -7,-1 -14,4 -16,11"/>
   <line class="fil0 str0" x1="696" y1="682" x2="897" y2= "292" />
   <line class="fil0 str0" x1="872" y1="974" x2="715" y2= "645" />
   <line class="fil0 str0" x1="698" y1="609" x2="661" y2= "532" />
   <line class="fil0 str0" x1="833" y1="974" x2="695" y2= "685" />
   <line class="fil0 str0" x1="678" y1="650" x2="618" y2= "523" />
   <line class="fil0 str0" x1="833" y1="974" x2="872" y2= "974" />
   <line class="fil0 str2" x1="278" y1="620" x2="676" y2= "695" />
   <path class="fil2 str0" d="M682 679c0,-3 -3,-5 -6,-5 -3,0 -5,2 -5,5 0,3 2,6 5,6 3,0 6,-3 6,-6z"/>
   <path class="fil0 str0" d="M706 648c0,-5 -4,-9 -9,-9 -5,0 -10,4 -10,9 0,5 5,9 10,9 5,0 9,-4 9,-9z"/>
   <polygon class="fil1 str3" points="661,532 618,523 833,974 872,974 "/>
   <path class="fil2 str1" d="M618 523l43 9 -29 -62c-11,-28 -44,-15 -33,13l19 40z"/>
   <path class="fil2 str0" d="M776 489c0,-3 -2,-5 -5,-5 -3,0 -6,2 -6,5 0,3 3,6 6,6 3,0 5,-3 5,-6z"/>
   <path class="fil3 str4" d="M517 646c0,-3 -2,-5 -5,-5 -3,0 -6,2 -6,5 0,3 3,6 6,6 3,0 5,-3 5,-6z"/>
   <path class="fil3 str4" d="M589 504c0,-3 -3,-5 -6,-5 -3,0 -5,2 -5,5 0,3 2,6 5,6 3,0 6,-3 6,-6z"/>
   <path class="fil3 str4" d="M619 471c0,-3 -2,-5 -5,-5 -3,0 -6,2 -6,5 0,3 3,5 6,5 3,0 5,-2 5,-5z"/>
  </g>
 </g>
</svg>
