<?xml version="1.0" encoding="utf-8"?>
<!-- Generator: Adobe Illustrator 16.0.0, SVG Export Plug-In . SVG Version: 6.00 Build 0)  -->
<!DOCTYPE svg PUBLIC "-//W3C//DTD SVG 1.1//EN" "http://www.w3.org/Graphics/SVG/1.1/DTD/svg11.dtd">
<svg version="1.1" id="Layer_1" xmlns="http://www.w3.org/2000/svg" xmlns:xlink="http://www.w3.org/1999/xlink" x="0px" y="0px"
	 width="900px" height="900px" viewBox="0 0 900 900" enable-background="new 0 0 900 900" xml:space="preserve">
<g>
	<path fill="none" stroke="#FFFFFF" stroke-width="7" stroke-miterlimit="22.9256" d="M787.44,322.277
		c7.753,136.148,10.104,269.9-0.85,403.963c-3.101,37.938-206.234,38.021-206.234,38.021"/>
	<path fill="none" stroke="#FFFFFF" stroke-width="7" stroke-miterlimit="22.9256" d="M579.825,140.562
		c73.543,0.959,194.401-6.348,196.011,14.197c1.056,13.532,2.095,27.03,3.102,40.497"/>
	<path fill="none" stroke="#FFFFFF" stroke-width="7" stroke-miterlimit="22.9256" d="M373.271,322.258
		c-7.753,136.155-10.106,269.913,0.851,403.982c3.099,37.938,206.939,38.018,206.939,38.018"/>
	<path fill="none" stroke="#FFFFFF" stroke-width="7" stroke-miterlimit="22.9256" d="M580.356,140.556
		c-73.543,0.956-193.875-6.345-195.479,14.203c-1.062,13.546-2.099,27.063-3.11,40.546"/>
	<path fill="none" stroke="#FFFFFF" stroke-width="7" stroke-miterlimit="22.9256" d="M470.327,512.525
		c-0.093-19.855,0.967-39.646,3.415-79.348c1.355-21.991,18.207-37.268,40.054-40.057c36.568-4.664,66.596-4.015,66.561-4.018"/>
	<path fill="none" stroke="#FFFFFF" stroke-width="7" stroke-miterlimit="22.9256" d="M470.327,512.326
		c-0.093,19.853,0.962,39.644,3.415,79.349c1.355,21.987,18.204,37.248,40.054,40.056c36.509,4.685,66.125,4.034,67.146,4.02"/>
	<path fill="none" stroke="#FFFFFF" stroke-width="7" stroke-miterlimit="22.9256" d="M690.384,512.525
		c0.089-19.855-0.964-39.646-3.413-79.348c-1.359-21.991-18.207-37.268-40.059-40.057c-36.564-4.668-67.846-4.034-67.846-4.034"/>
	<path fill="none" stroke="#FFFFFF" stroke-width="7" stroke-miterlimit="22.9256" d="M690.384,512.326
		c0.092,19.853-0.964,39.644-3.413,79.349c-1.356,21.987-18.205,37.265-40.056,40.056c-36.567,4.668-66.227,3.988-66.56,4.018"/>
	<path fill="#FFFFFF" stroke="#FFFFFF" stroke-width="7" stroke-miterlimit="22.9256" d="M516.179,432.902h27.305
		c3.651,0,6.634,2.984,6.634,6.632v13.979c0,3.646-2.981,6.634-6.634,6.634h-27.305c-3.646,0-6.631-2.986-6.631-6.634v-13.979
		C509.548,435.888,512.531,432.902,516.179,432.902z"/>
	<path fill="#FFFFFF" stroke="#FFFFFF" stroke-width="7" stroke-miterlimit="22.9256" d="M566.701,432.902h27.312
		c3.645,0,6.629,2.984,6.629,6.632v13.979c0,3.646-2.984,6.634-6.629,6.634h-27.312c-3.646,0-6.63-2.986-6.63-6.634v-13.979
		C560.072,435.888,563.055,432.902,566.701,432.902z"/>
	<path fill="#FFFFFF" stroke="#FFFFFF" stroke-width="7" stroke-miterlimit="22.9256" d="M617.225,432.902h27.309
		c3.647,0,6.633,2.984,6.633,6.632v13.979c0,3.646-2.984,6.634-6.633,6.634h-27.309c-3.646,0-6.629-2.986-6.629-6.634v-13.979
		C610.596,435.888,613.578,432.902,617.225,432.902z"/>
	<path fill="#FFFFFF" stroke="#FFFFFF" stroke-width="7" stroke-miterlimit="22.9256" d="M516.179,476.119h27.305
		c3.651,0,6.634,2.981,6.634,6.63v13.981c0,3.646-2.981,6.631-6.634,6.631h-27.305c-3.646,0-6.631-2.983-6.631-6.631v-13.981
		C509.548,479.102,512.531,476.119,516.179,476.119z"/>
	<path fill="#FFFFFF" stroke="#FFFFFF" stroke-width="7" stroke-miterlimit="22.9256" d="M566.701,476.119h27.312
		c3.645,0,6.629,2.981,6.629,6.63v13.981c0,3.646-2.984,6.631-6.629,6.631h-27.312c-3.646,0-6.63-2.983-6.63-6.631v-13.981
		C560.072,479.102,563.055,476.119,566.701,476.119z"/>
	<path fill="#FFFFFF" stroke="#FFFFFF" stroke-width="7" stroke-miterlimit="22.9256" d="M617.225,476.119h27.309
		c3.647,0,6.633,2.981,6.633,6.63v13.981c0,3.646-2.984,6.631-6.633,6.631h-27.309c-3.646,0-6.629-2.983-6.629-6.631v-13.981
		C610.596,479.102,613.578,476.119,617.225,476.119z"/>
	<path fill="#FFFFFF" stroke="#FFFFFF" stroke-width="7" stroke-miterlimit="22.9256" d="M516.179,519.431h27.305
		c3.651,0,6.634,2.986,6.634,6.634v13.979c0,3.647-2.981,6.632-6.634,6.632h-27.305c-3.646,0-6.631-2.983-6.631-6.632v-13.979
		C509.548,522.417,512.531,519.431,516.179,519.431z"/>
	<path fill="#FFFFFF" stroke="#FFFFFF" stroke-width="7" stroke-miterlimit="22.9256" d="M566.701,519.431h27.312
		c3.645,0,6.629,2.986,6.629,6.634v13.979c0,3.647-2.984,6.632-6.629,6.632h-27.312c-3.646,0-6.63-2.983-6.63-6.632v-13.979
		C560.072,522.417,563.055,519.431,566.701,519.431z"/>
	<path fill="#FFFFFF" stroke="#FFFFFF" stroke-width="7" stroke-miterlimit="22.9256" d="M617.225,519.431h27.309
		c3.647,0,6.633,2.986,6.633,6.634v13.979c0,3.647-2.984,6.632-6.633,6.632h-27.309c-3.646,0-6.629-2.983-6.629-6.632v-13.979
		C610.596,522.417,613.578,519.431,617.225,519.431z"/>
	<path fill="#FFFFFF" stroke="#FFFFFF" stroke-width="7" stroke-miterlimit="22.9256" d="M516.179,562.646h27.305
		c3.651,0,6.634,2.983,6.634,6.632v13.98c0,3.647-2.981,6.63-6.634,6.63h-27.305c-3.646,0-6.631-2.981-6.631-6.63v-13.98
		C509.548,565.631,512.531,562.646,516.179,562.646z"/>
	<path fill="#FFFFFF" stroke="#FFFFFF" stroke-width="7" stroke-miterlimit="22.9256" d="M566.701,562.646h27.312
		c3.645,0,6.629,2.983,6.629,6.632v13.98c0,3.647-2.984,6.63-6.629,6.63h-27.312c-3.646,0-6.63-2.981-6.63-6.63v-13.98
		C560.072,565.631,563.055,562.646,566.701,562.646z"/>
	<path fill="#FFFFFF" stroke="#FFFFFF" stroke-width="7" stroke-miterlimit="22.9256" d="M617.225,562.646h27.309
		c3.647,0,6.633,2.983,6.633,6.632v13.98c0,3.647-2.984,6.63-6.633,6.63h-27.309c-3.646,0-6.629-2.981-6.629-6.63v-13.98
		C610.596,565.631,613.578,562.646,617.225,562.646z"/>
	<path fill="#FFFFFF" stroke="#FFFFFF" stroke-width="7" stroke-miterlimit="22.9256" d="M715.029,639.767
		c5.831,0,10.583-4.753,10.583-10.583c0-5.826-4.752-10.584-10.583-10.584c-5.826,0-10.584,4.758-10.584,10.584
		C704.445,635.014,709.202,639.767,715.029,639.767z"/>
	<path fill="#FFFFFF" stroke="#FFFFFF" stroke-width="7" stroke-miterlimit="22.9256" d="M319.701,194.5H841.01
		c10.349,0,18.814,8.467,18.814,18.814v90.155c0,10.347-8.467,18.814-18.814,18.814H319.701c-10.351,0-18.814-8.467-18.814-18.814
		v-90.155C300.887,202.967,309.351,194.5,319.701,194.5z"/>
	
		<line fill="none" stroke="#FFFFFF" stroke-width="7" stroke-miterlimit="22.9256" x1="480.568" y1="140.051" x2="480.568" y2="194.5"/>
	
		<line fill="none" stroke="#FFFFFF" stroke-width="7" stroke-miterlimit="22.9256" x1="680.143" y1="140.051" x2="680.143" y2="194.5"/>
	
		<line fill="none" stroke="#FFFFFF" stroke-width="7" stroke-miterlimit="22.9256" x1="300.887" y1="258.39" x2="222.302" y2="258.39"/>
	
		<line fill="none" stroke="#FFFFFF" stroke-width="7" stroke-miterlimit="22.9256" x1="369.119" y1="409.24" x2="290.534" y2="409.24"/>
	<polyline fill="none" stroke="#FFFFFF" stroke-width="7" stroke-linejoin="round" stroke-miterlimit="22.9256" points="
		222.302,258.39 222.302,409.24 290.534,409.24 	"/>
	<path fill="none" stroke="#FFFFFF" stroke-width="7" stroke-miterlimit="22.9256" d="M222.302,561.781
		c0,81.188-252.698-152.541-153.748-152.541h153.748V561.781z"/>
</g>
</svg>
