<?xml version="1.0" encoding="utf-8"?>
<!-- Generator: Adobe Illustrator 16.0.0, SVG Export Plug-In . SVG Version: 6.00 Build 0)  -->
<!DOCTYPE svg PUBLIC "-//W3C//DTD SVG 1.1//EN" "http://www.w3.org/Graphics/SVG/1.1/DTD/svg11.dtd">
<svg version="1.1" id="Layer_1" xmlns="http://www.w3.org/2000/svg" xmlns:xlink="http://www.w3.org/1999/xlink" x="0px" y="0px"
	 width="900px" height="900px" viewBox="0 0 900 900" enable-background="new 0 0 900 900" xml:space="preserve">
<path fill="none" stroke="#FFFFFF" stroke-width="7" stroke-linejoin="bevel" stroke-miterlimit="22.9256" d="M493.723,169.053
	h-42.989H407.74c-4.289,8.418-5.77,10.61-4.857,17.796c0.544,4.251,2.081,10.31,4.281,14.417c3.503,5.466,3.9,22.956,2.431,32.754
	c-1.091,11.226-3.777,28.349-6.553,32.453c-4.005,12.01-11.147,21.787-13.424,34.238c-3.194,17.454-8.037,38.506-14.152,54.574
	c-5.571,14.633-17.401,24.441-24.727,38.814c-5.721,11.225-7.744,25.032-9.774,37.672l1.796,303.88
	c2.706,17.309,12.188,25.771,28.451,25.38h80.046l82.629-0.104c16.263,0.392,22.11-7.968,24.814-25.275l1.431-305.053
	c-2.027-12.637-3.686-25.274-9.408-36.5c-7.326-14.374-19.157-24.181-24.726-38.814c-6.114-16.068-10.959-37.12-14.148-54.574
	c-2.278-12.451-9.421-22.228-13.427-34.238c-2.776-4.104-5.463-21.227-6.554-32.453c-1.467-9.798-1.069-27.288,2.43-32.754
	c2.202-4.106,3.74-10.165,4.283-14.417C499.494,179.663,498.016,177.471,493.723,169.053"/>
<path fill="#FFFFFF" d="M500.3,169.053L500.3,169.053c0-16.342-13.37-29.71-29.71-29.71h-40.24
	c-16.341,0-29.711,13.368-29.711,29.71H500.3z"/>
<g>
	<g>
		<path fill="#FFFFFF" d="M363.155,557.509h11.524v-22.875c-0.962-7.692-6.157-11.983-15.582-12.866
			c-8.713,0.452-13.955,4.744-15.73,12.866v30.883h12.057v-15.515c0.263-2.057,1.485-3.083,3.674-3.073
			c2.498-0.056,3.851,1.11,4.058,3.503V557.509z"/>
		<path fill="#FFFFFF" d="M363.155,572.092h11.524v22.876c-0.962,7.693-6.157,11.982-15.582,12.866
			c-8.713-0.451-13.955-4.74-15.73-12.866v-30.88h12.057v15.511c0.263,2.063,1.485,3.083,3.674,3.073
			c2.498,0.054,3.851-1.11,4.058-3.501V572.092z"/>
	</g>
	<g>
		<path fill="#FFFFFF" d="M401.202,557.509h11.524v-22.875c-0.96-7.692-6.156-11.983-15.583-12.866
			c-8.711,0.452-13.956,4.744-15.728,12.866v30.883h12.055v-15.515c0.262-2.057,1.485-3.083,3.673-3.073
			c2.499-0.056,3.853,1.11,4.059,3.503V557.509z"/>
		<path fill="#FFFFFF" d="M401.202,572.092h11.524v22.876c-0.96,7.693-6.156,11.982-15.583,12.866
			c-8.711-0.451-13.956-4.74-15.728-12.866v-30.88h12.055v15.511c0.262,2.063,1.485,3.083,3.673,3.073
			c2.499,0.054,3.853-1.11,4.059-3.501V572.092z"/>
		<path fill="#FFFFFF" d="M392.941,557.509h-11.524v-22.875c0.962-7.692,6.157-11.983,15.584-12.866
			c8.711,0.452,13.953,4.744,15.727,12.866v30.883h-12.054v-15.515c-0.263-2.057-1.487-3.083-3.673-3.073
			c-2.5-0.056-3.854,1.11-4.06,3.503V557.509z"/>
		<path fill="#FFFFFF" d="M392.941,572.092h-11.524v22.876c0.962,7.693,6.157,11.982,15.584,12.866
			c8.711-0.451,13.953-4.74,15.727-12.866v-30.88h-12.054v15.511c-0.263,2.063-1.487,3.083-3.673,3.073
			c-2.5,0.054-3.854-1.11-4.06-3.501V572.092z"/>
	</g>
	<g>
		<path fill="#FFFFFF" d="M437.213,557.509h11.522v-22.875c-0.962-7.692-6.156-11.983-15.583-12.866
			c-8.71,0.452-13.953,4.744-15.728,12.866v30.883h12.056v-15.515c0.261-2.057,1.485-3.083,3.672-3.073
			c2.499-0.056,3.854,1.11,4.061,3.503V557.509z"/>
		<path fill="#FFFFFF" d="M437.213,572.092h11.522v22.876c-0.962,7.693-6.156,11.982-15.583,12.866
			c-8.71-0.451-13.953-4.74-15.728-12.866v-30.88h12.056v15.511c0.261,2.063,1.485,3.083,3.672,3.073
			c2.499,0.054,3.854-1.11,4.061-3.501V572.092z"/>
	</g>
	<g>
		<path fill="#FFFFFF" d="M535.908,557.509h-11.523v-22.875c0.961-7.692,6.156-11.983,15.583-12.866
			c8.712,0.452,13.955,4.744,15.726,12.866v30.883h-12.052v-15.515c-0.263-2.057-1.488-3.083-3.674-3.073
			c-2.496-0.056-3.853,1.11-4.06,3.503V557.509z"/>
		<path fill="#FFFFFF" d="M555.693,558.802v6.715v18.303h4.438v23.73h-14.153v-9.151c-1.567,6.679-4.88,9.821-9.935,9.437
			c-4.488,0.602-10.396-3.476-11.658-10.648l0.314-21.859c0.896-9.81,8.67-16.237,18.941-16.523h12.052V558.802z M536.823,575.957
			v3.718c0.23,2.987,2.901,4.845,4.571,4.432c1.934-0.247,3.243-1.416,3.936-3.501v-10.152
			C540.828,570.521,537.994,572.355,536.823,575.957z"/>
	</g>
	<polygon fill="#FFFFFF" points="469.414,497.366 452.615,497.366 452.615,517.38 455.761,517.38 455.761,584.105 452.615,584.105 
		452.615,607.834 472.058,607.834 472.058,584.105 469.414,584.105 469.414,570.452 478.921,584.105 475.202,584.105 
		475.202,607.834 493.791,607.834 493.791,584.105 491.858,584.105 476.844,563.067 489.998,546.188 493.791,546.188 
		493.791,521.768 475.202,521.768 475.202,545.901 477.491,545.901 469.414,558.106 469.414,558.063 	"/>
	<path fill="#FFFFFF" d="M518.578,607.834l-5.498-0.06c-4.484,0.598-10.399-3.475-11.657-10.65l0.194-13.471v-37.468h-3.731
		l-0.036-24.419h3.573v-24.4h12.868v24.4h3.682v24.419h-3.682v34.041c0.451,2.696,1.886,3.992,4.287,3.879V607.834L518.578,607.834z
		"/>
</g>
</svg>
