<?xml version="1.0" encoding="UTF-8"?>
<!DOCTYPE svg PUBLIC "-//W3C//DTD SVG 1.1//EN" "http://www.w3.org/Graphics/SVG/1.1/DTD/svg11.dtd">
<!-- Creator: CorelDRAW X7 -->
<?xml-stylesheet href="cockta-w.css" type="text/css"?>
<svg xmlns="http://www.w3.org/2000/svg" xml:space="preserve" width="100mm" height="100mm" version="1.1" style="shape-rendering:geometricPrecision; text-rendering:geometricPrecision; image-rendering:optimizeQuality; fill-rule:evenodd; clip-rule:evenodd"
viewBox="0 0 10000 10000"
 xmlns:xlink="http://www.w3.org/1999/xlink">
 <g id="Layer_x0020_1">
  <metadata id="CorelCorpID_0Corel-Layer"/>
  <path class="fil0 str0" d="M5448 1661l-485 0 -485 0c-49,95 -65,120 -55,201 6,48 23,116 48,163 40,61 44,259 28,369 -13,127 -43,320 -74,367 -46,135 -126,246 -152,386 -36,197 -91,435 -160,616 -62,165 -196,276 -279,438 -64,127 -87,283 -110,425l20 3430c31,196 138,291 321,287l904 0 932 -2c184,5 250,-89 281,-285l16 -3443c-23,-142 -42,-285 -107,-412 -82,-162 -216,-273 -279,-438 -69,-181 -123,-419 -159,-616 -26,-140 -107,-251 -152,-386 -31,-47 -61,-240 -74,-367 -16,-110 -12,-308 28,-369 24,-47 42,-115 48,-163 10,-81 -6,-106 -55,-201"/>
  <path class="fil1 str1" d="M5522 1661l0 0c0,-184 -151,-335 -335,-335l-454 0c-185,0 -335,151 -335,335l1124 0z"/>
  <g id="_857542006016">
   <g>
    <path class="fil1 str2" d="M3974 6046l131 0 0 -259c-11,-86 -70,-135 -176,-145 -99,5 -158,54 -178,145l0 349 136 0 0 -175c3,-23 17,-35 42,-35 28,0 43,13 45,40l0 80z"/>
    <path class="fil1 str2" d="M3974 6210l131 0 0 258c-11,87 -70,136 -176,146 -99,-6 -158,-54 -178,-146l0 -348 136 0 0 175c3,23 17,35 42,35 28,0 43,-13 45,-40l0 -80z"/>
   </g>
   <g>
    <path class="fil1 str2" d="M4404 6046l130 0 0 -259c-11,-86 -70,-135 -176,-145 -98,5 -157,54 -177,145l0 349 136 0 0 -175c3,-23 16,-35 41,-35 28,0 44,13 46,40l0 80z"/>
    <path class="fil1 str2" d="M4404 6210l130 0 0 258c-11,87 -70,136 -176,146 -98,-6 -157,-54 -177,-146l0 -348 136 0 0 175c3,23 16,35 41,35 28,0 44,-13 46,-40l0 -80z"/>
    <path class="fil1 str2" d="M4311 6046l-130 0 0 -259c10,-86 69,-135 175,-145 99,5 158,54 178,145l0 349 -136 0 0 -175c-3,-23 -17,-35 -42,-35 -28,0 -43,13 -45,40l0 80z"/>
    <path class="fil1 str2" d="M4311 6210l-130 0 0 258c10,87 69,136 175,146 99,-6 158,-54 178,-146l0 -348 -136 0 0 175c-3,23 -17,35 -42,35 -28,0 -43,-13 -45,-40l0 -80z"/>
   </g>
   <g>
    <path class="fil1 str2" d="M4810 6046l130 0 0 -259c-10,-86 -69,-135 -176,-145 -98,5 -157,54 -177,145l0 349 136 0 0 -175c3,-23 17,-35 41,-35 29,0 44,13 46,40l0 80z"/>
    <path class="fil1 str2" d="M4810 6210l130 0 0 258c-10,87 -69,136 -176,146 -98,-6 -157,-54 -177,-146l0 -348 136 0 0 175c3,23 17,35 41,35 29,0 44,-13 46,-40l0 -80z"/>
   </g>
   <g>
    <path class="fil1 str2" d="M5924 6046l-130 0 0 -259c11,-86 70,-135 176,-145 98,5 158,54 178,145l0 349 -136 0 0 -175c-3,-23 -17,-35 -42,-35 -28,0 -43,13 -46,40l0 80z"/>
    <path class="fil1 str2" d="M6148 6060l0 76 0 206 50 0 0 268 -160 0 0 -103c-18,75 -55,111 -112,107 -51,6 -118,-40 -132,-121l4 -246c10,-111 98,-184 214,-187l136 0zm-213 194c13,-41 45,-62 96,-62l0 114c-8,24 -23,37 -45,40 -19,4 -49,-17 -51,-50l0 -42z"/>
   </g>
   <polygon class="fil1 str2" points="5174,5367 4984,5367 4984,5593 5020,5593 5020,6346 4984,6346 4984,6614 5204,6614 5204,6346 5174,6346 5174,6192 5281,6346 5239,6346 5239,6614 5449,6614 5449,6346 5427,6346 5258,6108 5406,5918 5449,5918 5449,5642 5239,5642 5239,5915 5265,5915 5174,6052 5174,6052 "/>
   <path class="fil1 str2" d="M5729 6614l-62 -1c-51,7 -118,-39 -132,-120l2 -152 0 -423 -42 0 0 -276 40 0 0 -275 145 0 0 275 42 0 0 276 -42 0 0 384c5,30 22,45 49,44l0 268z"/>
  </g>
 </g>
</svg>
