<?xml version="1.0" encoding="UTF-8"?>
<!DOCTYPE svg PUBLIC "-//W3C//DTD SVG 1.1//EN" "http://www.w3.org/Graphics/SVG/1.1/DTD/svg11.dtd">
<!-- Creator: CorelDRAW X7 -->
<?xml-stylesheet href="eta-w.css" type="text/css"?>
<svg xmlns="http://www.w3.org/2000/svg" xml:space="preserve" width="100mm" height="100mm" version="1.1" style="shape-rendering:geometricPrecision; text-rendering:geometricPrecision; image-rendering:optimizeQuality; fill-rule:evenodd; clip-rule:evenodd"
viewBox="0 0 10000 10000"
 xmlns:xlink="http://www.w3.org/1999/xlink">
 <g id="Layer_x0020_1">
  <metadata id="CorelCorpID_0Corel-Layer"/>
  <path class="fil0 str0" d="M8663 3856c88,1531 114,3036 -9,4544 -35,427 -2320,428 -2320,428"/>
  <path class="fil0 str0" d="M6328 1811c827,11 2187,-71 2205,160 12,152 23,304 35,456"/>
  <path class="fil0 str0" d="M4004 3855c-87,1532 -114,3037 9,4545 35,427 2329,428 2329,428"/>
  <path class="fil0 str0" d="M6334 1811c-828,11 -2182,-71 -2200,160 -12,152 -23,304 -35,456"/>
  <path class="fil0 str0" d="M5096 5996c-1,-223 11,-446 38,-893 15,-247 205,-419 451,-450 411,-53 749,-46 749,-46"/>
  <path class="fil0 str0" d="M5096 5994c-1,223 11,446 38,892 15,248 205,419 451,451 410,53 744,45 755,45"/>
  <path class="fil0 str0" d="M7571 5996c1,-223 -10,-446 -38,-893 -15,-247 -205,-419 -451,-450 -411,-53 -763,-46 -763,-46"/>
  <path class="fil0 str0" d="M7571 5994c1,223 -10,446 -38,892 -15,248 -205,420 -451,451 -411,53 -745,45 -748,45"/>
  <rect class="fil1" x="5537" y="5100" width="456" height="306" rx="77" ry="75"/>
  <rect class="fil1" x="6105" y="5100" width="456" height="306" rx="77" ry="75"/>
  <rect class="fil1" x="6674" y="5100" width="456" height="306" rx="77" ry="75"/>
  <rect class="fil1" x="5537" y="5586" width="456" height="306" rx="77" ry="75"/>
  <rect class="fil1" x="6105" y="5586" width="456" height="306" rx="77" ry="75"/>
  <rect class="fil1" x="6674" y="5586" width="456" height="306" rx="77" ry="75"/>
  <rect class="fil1" x="5537" y="6074" width="456" height="306" rx="77" ry="75"/>
  <rect class="fil1" x="6105" y="6074" width="456" height="306" rx="77" ry="75"/>
  <rect class="fil1" x="6674" y="6074" width="456" height="306" rx="77" ry="75"/>
  <rect class="fil1" x="5537" y="6560" width="456" height="306" rx="77" ry="75"/>
  <rect class="fil1" x="6105" y="6560" width="456" height="306" rx="77" ry="75"/>
  <rect class="fil1" x="6674" y="6560" width="456" height="306" rx="77" ry="75"/>
  <circle class="fil1 str0" cx="7849" cy="7308" r="119"/>
  <rect class="fil1 str0" x="3189" y="2418" width="6288" height="1438" rx="200" ry="212"/>
  <line class="fil0 str0" x1="5211" y1="1805" x2="5211" y2= "2418" />
  <line class="fil0 str0" x1="7456" y1="1805" x2="7456" y2= "2418" />
  <line class="fil0 str0" x1="3189" y1="3137" x2="2305" y2= "3137" />
  <line class="fil0 str0" x1="3957" y1="4834" x2="3073" y2= "4834" />
  <polyline class="fil0 str1" points="2305,3137 2305,4834 3073,4834 "/>
  <path class="fil0 str0" d="M2305 6550c0,913 -2843,-1716 -1729,-1716l1729 0 0 1716z"/>
 </g>
</svg>
